<svg width="8905" height="1560" viewBox="0 0 8905 1560" fill="none" xmlns="http://www.w3.org/2000/svg">
<path d="M400 0C466.274 0 520 53.7258 520 120V780C520 923.594 636.406 1040 780 1040H920C986.274 1040 1040 1093.73 1040 1160V1440C1040 1506.27 986.274 1560 920 1560H780C349.218 1560 0 1210.78 0 780V120C0 53.7258 53.7258 3.22133e-07 120 0H400ZM1940 0C2370.78 0 2720 349.218 2720 780C2720 1210.78 2370.78 1560 1940 1560C1509.22 1560 1160 1210.78 1160 780C1160 349.218 1509.22 0 1940 0ZM3760 0C3826.27 0 3880 53.7258 3880 120V400C3880 466.274 3826.27 520 3760 520H3620V520.188C3616.68 520.063 3613.35 520 3610 520C3466.41 520 3350 636.406 3350 780C3350 923.594 3466.41 1040 3610 1040C3613.35 1040 3616.68 1039.94 3620 1039.81V1040H3760C3826.27 1040 3880 986.274 3880 920V640C3880 573.726 3933.73 520 4000 520H4280C4346.27 520 4400 573.726 4400 640V920C4400 986.274 4346.27 1040 4280 1040H4000C3950.81 1040 3908.52 1069.6 3890 1111.97V1440C3890 1506.27 3836.27 1560 3770 1560H3620C3189.22 1560 2840 1210.78 2840 780C2840 352.556 3183.83 5.41704 3610 0.0625V0H3760ZM5440 520C5506.27 520 5560 573.726 5560 640V920C5560 986.274 5506.27 1040 5440 1040H5160C5093.73 1040 5040 1093.73 5040 1160V1440C5040 1506.27 4986.27 1560 4920 1560H4640C4573.73 1560 4520 1506.27 4520 1440V1160C4520 1093.73 4573.73 1040 4640 1040H4920C4986.27 1040 5040 986.274 5040 920V640C5040 573.726 5093.73 520 5160 520H5440ZM6460 0C6526.27 0 6580 53.7258 6580 120V400C6580 466.274 6526.27 520 6460 520C6344.29 520 6246.23 595.59 6212.51 700.083C6290.28 674.085 6373.49 660 6460 660C6526.27 660 6580 713.726 6580 780V1060C6580 1126.27 6526.27 1180 6460 1180C6316.41 1180 6200 1296.41 6200 1440C6200 1506.27 6146.27 1560 6080 1560H5800C5733.73 1560 5680 1506.27 5680 1440C5680 1230.42 5762.66 1040.15 5897.15 900H5800C5733.73 900 5680 846.274 5680 780C5680 349.218 6029.22 0 6460 0ZM7620 520C7686.27 520 7740 573.726 7740 640V920C7740 986.274 7686.27 1040 7620 1040H7340C7273.73 1040 7220 1093.73 7220 1160V1440C7220 1506.27 7166.27 1560 7100 1560H6820C6753.73 1560 6700 1506.27 6700 1440V1160C6700 1093.73 6753.73 1040 6820 1040H7100C7166.27 1040 7220 986.274 7220 920V640C7220 573.726 7273.73 520 7340 520H7620ZM8785 0C8851.27 0 8905 53.7258 8905 120V400C8905 466.274 8851.27 520 8785 520H8640C8496.41 520 8380 636.406 8380 780C8380 923.594 8496.41 1040 8640 1040H8785C8851.27 1040 8905 1093.73 8905 1160V1440C8905 1506.27 8851.27 1560 8785 1560H8635V1559.98C8206.52 1557.29 7860 1209.11 7860 780C7860 350.886 8206.52 2.70438 8635 0.0146484V0H8785ZM1940 520C1796.41 520 1680 636.406 1680 780C1680 923.594 1796.41 1040 1940 1040C2083.59 1040 2200 923.594 2200 780C2200 636.406 2083.59 520 1940 520Z" fill="#1E1E1E"/>
</svg>
